<?xml version="1.0" encoding="utf-8"?>
<!-- Generator: Adobe Illustrator 18.0.0, SVG Export Plug-In . SVG Version: 6.00 Build 0)  -->
<!DOCTYPE svg PUBLIC "-//W3C//DTD SVG 1.1//EN" "http://www.w3.org/Graphics/SVG/1.1/DTD/svg11.dtd">
<svg version="1.1" id="Layer_1" xmlns="http://www.w3.org/2000/svg" xmlns:xlink="http://www.w3.org/1999/xlink" x="0px" y="0px"
	 viewBox="0 0 566.9 392.5" enable-background="new 0 0 566.9 392.5" xml:space="preserve">
<g>
	<path fill="#FFFFFF" d="M184.9,67.4c-34.3-18.5-58-24.8-79-24.8c-33.7,0-59.5,18.4-59.5,46.4c0,64.3,163.3,91.7,163.3,196
		c0,55.3-50.6,99.6-111.2,99.6c-31.6,0-64.3-4.2-98.5-18.4v-46.4l2.6-2.6c34.3,18.4,69.6,24.8,95.9,24.8c34.8,0,64.8-25.3,64.8-56.9
		C163.3,210.2,0,186.5,0,89C0,38.5,45.8,0,105.9,0c26.3,0,47.4,4.2,81.7,18.4v46.4L184.9,67.4z"/>
	<path fill="#FFFFFF" d="M313.6,181.8c0,23.2-19,42.2-42.2,42.2c-23.2,0-42.1-19-42.1-42.2s19-42.2,42.1-42.2
		C294.6,139.6,313.6,158.6,313.6,181.8z M313.6,350.4c0,23.2-19,42.2-42.2,42.2c-23.2,0-42.1-19-42.1-42.2s19-42.2,42.1-42.2
		C294.6,308.2,313.6,327.2,313.6,350.4z"/>
	<path fill="#FFFFFF" d="M440.5,7.9c84.3,0,126.5,55.3,126.5,118.6S524.8,245,440.5,245h-26.3v129.1l-2.6,2.6H343l-2.6-2.6V10.5
		l2.1-2.6H440.5z M414.1,171.2h21.1c34.2,0,52.7-13.2,52.7-44.8c0-31.6-18.4-44.8-52.7-44.8h-21.1V171.2z"/>
</g>
</svg>
