<?xml version="1.0" encoding="UTF-8" standalone="no"?>
<!-- Created with Inkscape (http://www.inkscape.org/) -->

<svg
   xmlns:dc="http://purl.org/dc/elements/1.1/"
   xmlns:cc="http://creativecommons.org/ns#"
   xmlns:rdf="http://www.w3.org/1999/02/22-rdf-syntax-ns#"
   xmlns:svg="http://www.w3.org/2000/svg"
   xmlns="http://www.w3.org/2000/svg"
   xmlns:sodipodi="http://sodipodi.sourceforge.net/DTD/sodipodi-0.dtd"
   xmlns:inkscape="http://www.inkscape.org/namespaces/inkscape"
   width="250.90887mm"
   height="116.90263mm"
   viewBox="0 0 250.90887 116.90263"
   version="1.1"
   id="svg2073"
   inkscape:version="0.92.4 (5da689c313, 2019-01-14)"
   sodipodi:docname="rysunek 2.svg">
  <defs
     id="defs2067">
    <pattern
       y="0"
       x="0"
       height="6"
       width="6"
       patternUnits="userSpaceOnUse"
       id="EMFhbasepattern" />
  </defs>
  <sodipodi:namedview
     id="base"
     pagecolor="#ffffff"
     bordercolor="#666666"
     borderopacity="1.0"
     inkscape:pageopacity="0.0"
     inkscape:pageshadow="2"
     inkscape:zoom="0.7"
     inkscape:cx="375.65625"
     inkscape:cy="356.54572"
     inkscape:document-units="mm"
     inkscape:current-layer="layer1"
     showgrid="false"
     inkscape:window-width="1366"
     inkscape:window-height="705"
     inkscape:window-x="-8"
     inkscape:window-y="-8"
     inkscape:window-maximized="1"
     fit-margin-top="0"
     fit-margin-left="0"
     fit-margin-right="0"
     fit-margin-bottom="0" />
  <metadata
     id="metadata2070">
    <rdf:RDF>
      <cc:Work
         rdf:about="">
        <dc:format>image/svg+xml</dc:format>
        <dc:type
           rdf:resource="http://purl.org/dc/dcmitype/StillImage" />
        <dc:title></dc:title>
      </cc:Work>
    </rdf:RDF>
  </metadata>
  <g
     inkscape:label="Layer 1"
     inkscape:groupmode="layer"
     id="layer1"
     transform="translate(0,-100.72237)">
    <path
       id="path2621"
       d="m 51.39229,215.50835 h 18.5842 L 103.8429,151.75482 88.77235,131.90064 H 32.57526 l -15.04939,19.85418 z"
       style="fill:#e8295e;fill-opacity:1;fill-rule:evenodd;stroke:none;stroke-width:0.26458332"
       inkscape:connector-curvature="0" />
    <path
       id="path2623"
       d="M 71.26764,217.625 H 50.1223 L 15.00706,151.54316 31.5381,129.78398 h 58.29257 l 16.53104,21.75918 z M 52.66228,213.3917 H 68.7065 L 101.34525,151.94532 87.71402,134.01729 H 33.63359 l -13.61007,17.92803 z"
       style="fill:#000000;fill-opacity:1;fill-rule:nonzero;stroke:none;stroke-width:0.26458332"
       inkscape:connector-curvature="0" />
    <path
       id="path2625"
       d="m 17.56821,149.617 h 86.25352 v 4.2333 H 17.56821 Z"
       style="fill:#000000;fill-opacity:1;fill-rule:nonzero;stroke:none;stroke-width:0.26458332"
       inkscape:connector-curvature="0" />
    <path
       id="path2627"
       d="m 67.92334,215.04269 18.79585,-83.60772 4.12748,0.91016 -18.79587,83.62889 z"
       style="fill:#000000;fill-opacity:1;fill-rule:nonzero;stroke:none;stroke-width:0.26458332"
       inkscape:connector-curvature="0" />
    <path
       id="path2629"
       d="M 59.45673,150.01917 87.56586,130.18615 90,133.63629 61.91205,153.46931 Z"
       style="fill:#000000;fill-opacity:1;fill-rule:nonzero;stroke:none;stroke-width:0.26458332"
       inkscape:connector-curvature="0" />
    <path
       id="path2631"
       d="m 87.56586,130.18615 21.738,-15.36689 2.45531,3.45014 L 90,133.63629 Z"
       style="fill:#000000;fill-opacity:1;fill-rule:nonzero;stroke:none;stroke-width:0.26458332"
       inkscape:connector-curvature="0" />
    <path
       id="path2633"
       d="m 47.22249,191.92886 13.48306,3.83114 13.56774,-3.87348 1.14299,4.08514 -14.71073,4.19097 -14.64722,-4.1698 z"
       style="fill:#000000;fill-opacity:1;fill-rule:nonzero;stroke:none;stroke-width:0.26458332"
       inkscape:connector-curvature="0" />
    <path
       id="path2635"
       d="m 79.12042,170.27552 15.59972,-4.44497 1.16416,4.08514 -15.59972,4.4238 z"
       style="fill:#000000;fill-opacity:1;fill-rule:nonzero;stroke:none;stroke-width:0.26458332"
       inkscape:connector-curvature="0" />
    <path
       id="path2637"
       d="m 25.54798,169.97919 1.16416,-4.08514 15.55739,4.44497 -1.16416,4.06397 z"
       style="fill:#000000;fill-opacity:1;fill-rule:nonzero;stroke:none;stroke-width:0.26458332"
       inkscape:connector-curvature="0" />
    <path
       id="path2639"
       d="m 30.52211,132.3663 4.12747,-0.93133 18.81703,83.60772 -4.12747,0.93133 z"
       style="fill:#000000;fill-opacity:1;fill-rule:nonzero;stroke:none;stroke-width:0.26458332"
       inkscape:connector-curvature="0" />
    <path
       id="path2641"
       d="m 31.3476,133.61512 2.45532,-3.45014 28.10913,19.83302 -2.45532,3.47131 z"
       style="fill:#000000;fill-opacity:1;fill-rule:nonzero;stroke:none;stroke-width:0.26458332"
       inkscape:connector-curvature="0" />
    <path
       id="path2643"
       d="m 102.9539,157.89311 -12.08607,-57.17074 30.50094,22.47883 z m -5.65145,-47.15899 7.38711,34.86125 11.23941,-21.16651 z"
       style="fill:#000000;fill-opacity:1;fill-rule:nonzero;stroke:none;stroke-width:0.26458332"
       inkscape:connector-curvature="0" />
    <path
       id="path2645"
       d="m 9.6095997,118.2694 2.4553203,-3.47131 21.75917,15.36689 -2.45532,3.45014 z"
       style="fill:#000000;fill-opacity:1;fill-rule:nonzero;stroke:none;stroke-width:0.26458332"
       inkscape:connector-curvature="0" />
    <path
       id="path2647"
       d="M 18.43603,157.89311 0,123.2012 30.50095,100.72237 Z m -12.97507,-33.46425 11.23942,21.16651 7.38711,-34.86125 z"
       style="fill:#000000;fill-opacity:1;fill-rule:nonzero;stroke:none;stroke-width:0.26458332"
       inkscape:connector-curvature="0" />
    <path
       inkscape:connector-curvature="0"
       d="m 175.34387,195.263 h -53.975 l 21.16666,-23.07155 c 3.70418,-4.12748 9.31334,-11.00661 11.53584,-14.39328 1.5875,-2.53999 4.23334,-7.09079 4.23334,-11.95911 0,-2.64582 -1.05834,-5.39747 -2.75168,-6.98497 -1.37582,-1.26999 -3.70416,-2.01083 -6.45582,-2.01083 -3.06918,0 -5.08,1.05834 -6.45584,2.53999 -1.905,2.11667 -2.96334,5.92666 -2.96334,8.6783 h -16.29832 c 0.52916,-6.13831 2.96332,-13.12327 7.3025,-17.67407 3.38666,-3.59833 9.41916,-7.30247 19.47332,-7.30247 10.26584,0 15.76918,4.2333 18.30918,6.66747 3.81,3.80999 6.56166,9.63077 6.56166,16.93324 0,6.24415 -1.905,10.79496 -5.29166,15.55744 -3.06918,4.23332 -6.77334,7.83164 -11.32418,12.17079 l -7.40832,7.09081 h 24.34166 z"
       style="fill:#ca264e;stroke-width:0.52916551"
       id="path1512" />
    <path
       inkscape:connector-curvature="0"
       d="m 182.11721,195.263 v -70.5905 h 14.18166 l 38.31166,45.50812 V 124.6725 h 16.29834 V 195.263 H 236.72721 L 198.41553,149.54321 V 195.263 Z"
       style="fill:#ca264e;stroke-width:0.52916551"
       id="path1514" />
  </g>
</svg>
