<svg width="1232" height="411" viewBox="0 0 1232 411" fill="none" xmlns="http://www.w3.org/2000/svg">
<g clip-path="url(#clip0_1_13)">
<path d="M904.106 317.488C899.777 317.558 895.449 317.314 891.156 316.758V289.774C894.784 290.006 896.915 290.239 900.777 290.239C909.635 290.239 914.661 287.849 918.756 278.755L923.053 269.196L888.258 148.051H923.02L939.968 222.364L956.948 148.051H990.776C990.776 148.051 963.406 248.22 952.052 280.813C944.296 303.316 932.177 317.488 904.106 317.488Z" fill="#DC3E09"/>
<path d="M314.844 268.37C307.952 280.153 298.695 286.094 286.875 286.094C281.841 286.296 276.821 285.439 272.14 283.581C267.459 281.723 263.223 278.904 259.707 275.307C252.748 267.906 249.418 258.081 249.418 245.735C249.131 239.707 250.131 233.688 252.353 228.075C254.574 222.462 257.966 217.383 262.304 213.175C270.96 205.109 284.412 201.027 302.691 201.027H314.844V187.485C314.844 177.329 309.583 172.217 298.929 172.217C289.905 172.217 283.613 175.835 280.216 183.071L276.687 190.406H255.844L254.679 158.908C266.066 149.183 280.783 144.437 299.062 144.437C329.827 144.437 347.407 159.605 347.407 188.879V255.758L356.763 256.919V283.771H314.844V268.37ZM314.844 221.671H303.856C288.041 221.671 281.715 228.84 281.715 241.055C281.715 251.908 287.109 257.285 297.863 257.285C308.618 257.285 313.812 252.14 314.844 241.751V221.671Z" fill="#DC3E09"/>
<path d="M364.987 175.006V146.993H409.003V162.758C416.961 150.511 427.05 144.437 439.202 144.437C449.087 144.411 458.709 147.604 466.605 153.531V194.389H439.202L436.272 184.432C435.675 181.113 433.878 178.128 431.221 176.043C428.564 173.957 425.232 172.915 421.856 173.114C412.033 173.114 405.374 182.706 401.878 201.824L392.589 255.758H408.97V283.771H347.407V255.758H360.092L374.376 175.006H364.987Z" fill="#DC3E09"/>
<path d="M569.887 283.768H537.592C536.991 273.7 529.5 257.282 515.116 234.513L511.787 229.966L502.464 241.649V283.768H470.034V99.3947H502.464V201.024L514.517 185.989C526.903 170.688 533.462 157.743 534.061 146.99H566.357L566.124 151.437C565.414 163.696 556.358 180.38 538.955 201.489L532.43 209.189L538.724 218.648C558.699 246.993 568.69 267.172 569.42 278.988L569.887 283.768Z" fill="#DC3E09"/>
<path d="M585.271 272.219C575.547 262.992 570.674 247.934 570.653 227.046V203.581C570.653 182.715 575.526 167.669 585.271 158.442C594.987 149.477 607.739 144.497 620.979 144.497C634.219 144.497 646.971 149.477 656.687 158.442C666.376 167.669 671.305 182.837 671.305 203.714V220.774H603.05V234.78C603.05 250.512 610.542 258.445 622.36 258.445C626.21 258.668 630.038 257.759 633.371 255.829C636.706 253.899 639.393 251.034 641.105 247.591L644.736 240.256H668.943V271.754C654.928 281.522 638.158 286.59 621.062 286.225C607.745 286.443 594.88 281.409 585.271 272.219ZM638.977 198.702C638.977 187.616 637.211 180.016 633.814 175.933C632.306 174.004 630.37 172.451 628.158 171.397C625.943 170.343 623.516 169.816 621.062 169.859C618.59 169.811 616.139 170.335 613.904 171.389C611.669 172.442 609.708 173.998 608.177 175.933C604.847 180.016 603.017 187.616 603.017 198.702H638.977Z" fill="#DC3E09"/>
<path d="M774.488 283.766H741.926V196.242C741.926 186.916 740.66 180.709 738.064 177.689C736.757 176.097 735.087 174.841 733.192 174.026C731.296 173.212 729.233 172.863 727.175 173.009C719.118 173.009 714.189 178.519 712.193 189.604V283.766H679.664V146.988H712.226V162.753C719.384 150.971 728.872 145.029 740.326 145.029C745.042 144.88 749.728 145.825 754.016 147.789C758.303 149.753 762.075 152.683 765.032 156.347C771.359 163.915 774.52 177.191 774.52 196.176L774.488 283.766Z" fill="#DC3E09"/>
<path d="M854.463 247.589L858.094 240.221H882.333V271.619C870.979 281.311 855.696 286.09 836.318 286.09C829.34 286.379 822.38 285.245 815.858 282.756C809.335 280.268 803.395 276.478 798.396 271.619C788.804 261.927 784.011 247.456 784.011 228.206V202.284C784.011 183.034 788.804 168.562 798.396 158.871C803.392 154.004 809.332 150.201 815.852 147.696C822.371 145.192 829.334 144.036 836.318 144.3C852.506 143.739 868.378 148.86 881.168 158.771V190.269H856.962L853.464 182.934C852.083 179.587 849.697 176.748 846.634 174.805C843.568 172.862 839.978 171.911 836.351 172.081C833.497 171.858 830.632 172.348 828.016 173.507C825.399 174.666 823.113 176.457 821.369 178.719C818.04 183.166 816.706 190.867 816.706 201.72V229.832C816.706 248.618 822.8 258.309 836.351 258.309C840.109 258.594 843.864 257.717 847.104 255.799C850.345 253.881 852.914 251.014 854.463 247.589Z" fill="#DC3E09"/>
</g>
<defs>
<clipPath id="clip0_1_13">
<rect width="751" height="224" fill="white" transform="translate(240.5 93.5)"/>
</clipPath>
</defs>
</svg>
